<svg xmlns="http://www.w3.org/2000/svg" version="1.1" xmlns:xlink="http://www.w3.org/1999/xlink" xmlns:svgjs="http://svgjs.dev/svgjs" width="1500" height="1205" viewBox="0 0 1500 1205"><g transform="matrix(1,0,0,1,0,0.3984580210021704)"><svg viewBox="0 0 448 360" data-background-color="#000000" preserveAspectRatio="xMidYMid meet" height="1205" width="1500" xmlns="http://www.w3.org/2000/svg" xmlns:xlink="http://www.w3.org/1999/xlink"><g id="tight-bounds" transform="matrix(1,0,0,1,0,-0.11904140046539169)"><svg viewBox="0 0 448 360" height="360" width="448"><g><svg></svg></g><g><svg viewBox="0 0 448 360" height="360" width="448"><g><path transform="translate(36.9151,-7.08178) scale(0.00624,0.00624)" d="M25167 8301c221 0 400 179 400 400 0 221-179 400-400 400h-3824l-2753 2753c-156 156-409 156-566 0-156-156-156-409 0-566l2188-2188h-6475c-1847 0-3071 431-3819 1301-760 885-1068 2254-1068 4110 0 11 0 22-1 33l34 5884 2356-2356c156-156 409-156 566 0 156 156 156 409 0 566l-2915 2915c33 5746 31 11443-2 17189 4087 4041 8117 8068 12157 12154h4070c221 0 400 179 400 400 0 221-179 400-400 400h-3279l4160 4208 1-1c1313 1313 2498 2062 3660 2151 1146 87 2316-474 3622-1779l4579-4579h-3323c-221 0-400-179-400-400 0-221 179-400 400-400h4123l2666-2666c156-156 409-156 566 0 156 156 156 409 0 566l-2101 2101h6475c1847 0 3071-431 3819-1301 760-885 1068-2254 1068-4110h2l-34-5917-2568 2568c-156 156-409 156-566 0-156-156-156-409 0-566l3127-3127c-33-5746-31-11443 2-17189-4087-4041-8117-8068-12157-12154h-4193c-221 0-400-179-400-400 0-221 179-400 400-400h3402l-4141-4189c-7-6-13-12-20-18-1313-1313-2498-2062-3660-2151-1146-87-2316 474-3622 1779l-4579 4579h3024zM13737 8301h7275l5144-5144c1483-1483 2856-2116 4247-2010 1374 104 2719 934 4167 2382 8 8 15 15 22 23l4695 4749h6977c2096 0 3515 524 4425 1583 898 1045 1261 2582 1261 4629 0 13-1 25-2 37l-36 6373 4559 4508 1-1c1448 1448 2278 2792 2382 4167 106 1391-528 2764-2010 4247l-4934 4934 38 6710h2c0 2047-364 3584-1261 4629-910 1059-2329 1583-4425 1583h-7275l-5144 5144c-1483 1483-2856 2116-4247 2010-1374-104-2719-934-4167-2382l1-1-4718-4772h-6977c-2096 0-3515-524-4425-1583-898-1045-1261-2582-1261-4629h2l37-6410-4537-4485c-8-7-16-14-23-22-1448-1448-2278-2792-2382-4167-106-1391 528-2764 2010-4247l4934-4934-38-6672c-1-12-2-25-2-37 0-2047 364-3584 1261-4629 910-1059 2329-1583 4425-1583zM8141 30000l-44-7653-4374 4374c-1305 1305-1866 2476-1779 3622 88 1162 838 2348 2151 3660 6 6 13 13 18 20l3983 3937 45-7961zM8882 39860l-32 5627h2c0 1857 308 3226 1068 4110 748 871 1972 1301 3819 1301h6186l-5380-5442-5662-5597zM46264 9101h-6186l5380 5442 5662 5597 32-5594c-1-11-1-22-1-33 0-1857-308-3226-1068-4110-748-871-1972-1301-3819-1301zM51906 22039l-45 7961 44 7653 4374-4374c1305-1305 1866-2476 1779-3622-88-1163-838-2348-2151-3660l1-1-4002-3956z" fill="#ffdc00" fill-rule="nonzero" stroke="none" stroke-width="1" stroke-linecap="butt" stroke-linejoin="miter" stroke-miterlimit="10" stroke-dasharray="" stroke-dashoffset="0" font-family="none" font-weight="none" font-size="none" text-anchor="none" style="mix-blend-mode: normal" data-fill-palette-color="tertiary"></path></g><g transform="matrix(1,0,0,1,112,143.62153704961602)"><svg viewBox="0 0 224 72.75692590076797" height="72.75692590076797" width="224"><g><svg viewBox="0 0 224 72.75692590076797" height="72.75692590076797" width="224"><g><svg viewBox="0 0 386.7735835675676 125.62704000000001" height="72.75692590076797" width="224"><g transform="matrix(1,0,0,1,162.77358356756758,8.32703351351352)"><svg viewBox="0 0 224 108.97297297297297" height="108.97297297297297" width="224"><g id="textblocktransform"><svg viewBox="0 0 224 108.97297297297297" height="108.97297297297297" width="224" id="textblock"><g><svg viewBox="0 0 224 108.97297297297297" height="108.97297297297297" width="224"><g transform="matrix(1,0,0,1,0,0)"><svg width="224" viewBox="0.8 -35.1 72.15 35.1" height="108.97297297297297" data-palette-color="#ffdc00"><path d="M27.05 0L24.95-6.2 11.85-6.2 9.75 0 0.8 0 13.5-35.1 23.4-35.1 36.1 0 27.05 0ZM14.1-12.8L22.75-12.8 18.4-25.65 14.1-12.8ZM63.9 0L61.8-6.2 48.7-6.2 46.6 0 37.65 0 50.35-35.1 60.25-35.1 72.95 0 63.9 0ZM50.95-12.8L59.6-12.8 55.25-25.65 50.95-12.8Z" opacity="1" transform="matrix(1,0,0,1,0,0)" fill="#ffdc00" class="wordmark-text-0" data-fill-palette-color="primary" id="text-0"></path></svg></g></svg></g></svg></g></svg></g><g><svg viewBox="0 0 137.04768 125.62704000000001" height="125.62704000000001" width="137.04768"><g><svg xmlns="http://www.w3.org/2000/svg" xmlns:xlink="http://www.w3.org/1999/xlink" version="1.1" x="0" y="0" viewBox="0 1 24 22" style="enable-background:new 0 0 24 24;" xml:space="preserve" height="125.62704000000001" width="137.04768" class="icon-icon-0" data-fill-palette-color="accent" id="icon-0"><g fill="#ffdc00" data-fill-palette-color="accent"><path d="M21.5 1h-19C1.122 1 0 2.122 0 3.5v17C0 21.878 1.122 23 2.5 23h19c1.378 0 2.5-1.122 2.5-2.5v-17C24 2.122 22.878 1 21.5 1zM2.5 2h19C22.327 2 23 2.673 23 3.5V5H1V3.5C1 2.673 1.673 2 2.5 2zM21.5 22h-19C1.673 22 1 21.327 1 20.5V6h22v14.5C23 21.327 22.327 22 21.5 22z" fill="#ffdc00" data-fill-palette-color="accent"></path><circle cx="2.5" cy="3.5" r="0.50" fill="#ffdc00" data-fill-palette-color="accent"></circle><circle cx="4.5" cy="3.5" r="0.50" fill="#ffdc00" data-fill-palette-color="accent"></circle><circle cx="6.5" cy="3.5" r="0.50" fill="#ffdc00" data-fill-palette-color="accent"></circle><path d="M7.853 10.148c-0.195-0.195-0.512-0.195-0.707 0s-0.195 0.512 0 0.707l2.646 2.646-2.646 2.646c-0.195 0.195-0.195 0.512 0 0.707C7.244 16.951 7.372 17 7.5 17s0.256-0.049 0.353-0.145l3-3c0.195-0.195 0.195-0.512 0-0.707L7.853 10.148z" fill="#ffdc00" data-fill-palette-color="accent"></path><path d="M17.5 15h-5c-0.276 0-0.5 0.224-0.5 0.5s0.224 0.5 0.5 0.5h5c0.276 0 0.5-0.224 0.5-0.5S17.776 15 17.5 15z" fill="#ffdc00" data-fill-palette-color="accent"></path></g></svg></g></svg></g></svg></g></svg></g></svg></g></svg></g><defs></defs></svg><rect width="448" height="360" fill="none" stroke="none" visibility="hidden"></rect></g></svg></g></svg>