<svg xmlns="http://www.w3.org/2000/svg" version="1.1" xmlns:xlink="http://www.w3.org/1999/xlink" xmlns:svgjs="http://svgjs.dev/svgjs" width="2000" height="2250" viewBox="0 0 2000 2250"><g transform="matrix(1,0,0,1,0,0)"><svg viewBox="0 0 320 360" data-background-color="#282634" preserveAspectRatio="xMidYMid meet" height="2250" width="2000" xmlns="http://www.w3.org/2000/svg" xmlns:xlink="http://www.w3.org/1999/xlink"><g id="tight-bounds" transform="matrix(1,0,0,1,0,0)"><svg viewBox="0 0 320 360" height="360" width="320"><g><svg></svg></g><g><svg viewBox="0 0 320 360" height="360" width="320"><g><path d="M297.491 100.645c-12.426-21.51-112.674-79.355-137.491-79.355-24.817 0-125.028 57.845-137.491 79.355-11.591 20.02-11.591 138.726 0 158.746 12.463 21.474 112.674 79.319 137.491 79.319 24.817 0 125.064-57.845 137.491-79.355 11.591-20.02 11.591-138.69 0-158.71zM309.481 93.705c-14.461-24.998-119.469-86.295-149.481-86.295-30.012 0-135.02 61.297-149.481 86.295-14.025 24.199-14.025 148.391 0 172.59 14.461 24.998 119.469 86.295 149.481 86.295 30.012 0 135.02-61.297 149.481-86.259 14.025-24.235 14.025-148.427 0-172.626zM300.906 261.353c-12.753 22.055-115.472 81.317-140.906 81.318-25.434 0-128.153-59.298-140.906-81.354-11.881-20.529-11.881-142.178 0-162.707 12.753-22.019 115.472-81.281 140.906-81.281 25.434 0 128.153 59.298 140.906 81.318 11.881 20.529 11.881 142.178 0 162.706z" fill="#90a0d9" fill-rule="nonzero" stroke="none" stroke-width="1" stroke-linecap="butt" stroke-linejoin="miter" stroke-miterlimit="10" stroke-dasharray="" stroke-dashoffset="0" font-family="none" font-weight="none" font-size="none" text-anchor="none" style="mix-blend-mode: normal" data-fill-palette-color="tertiary"></path></g><g transform="matrix(1,0,0,1,48,113.35714417217447)"><svg viewBox="0 0 224 133.28571165565106" height="133.28571165565106" width="224"><g><svg viewBox="0 0 224 133.28571165565106" height="133.28571165565106" width="224"><g><svg viewBox="0 0 224 133.28571165565106" height="133.28571165565106" width="224"><g><svg viewBox="0 0 224 133.28571165565106" height="133.28571165565106" width="224"><g id="textblocktransform"><svg viewBox="0 0 224 133.28571165565106" height="133.28571165565106" width="224" id="textblock"><g><svg viewBox="0 0 224 133.28571165565106" height="133.28571165565106" width="224"><g transform="matrix(1,0,0,1,0,0)"><svg width="224" viewBox="0.34375 -39.95 67.89623485759999 40.400000000000006" height="133.28571165565106" data-palette-color="#23283e"><path d="M28.15-1.2L17.15-34.8 6.2-1.2 6.2-1.25Q5.9-0.5 5.38-0.03 4.85 0.45 4.1 0.45L4.1 0.45Q3.7 0.45 3.33 0.38 2.95 0.3 2.55 0.2L2.55 0.2 2.6 0.2Q-0.25-0.7 0.5-3L0.5-3 11.9-37.65Q12.15-38.45 12.78-39 13.4-39.55 14.25-39.65L14.25-39.65Q15.1-39.8 15.9-39.88 16.7-39.95 17.15-39.95L17.15-39.95Q17.6-39.95 18.4-39.88 19.2-39.8 20.05-39.7L20.05-39.7Q20.75-39.6 21.43-38.95 22.1-38.3 22.45-37.65L22.45-37.65Q25.25-29.05 28.13-20.33 31-11.6 33.8-3L33.8-3Q34.5-0.7 31.7 0.2L31.7 0.2Q31.3 0.3 30.98 0.38 30.65 0.45 30.25 0.45L30.25 0.45Q29.55 0.45 28.98-0.03 28.4-0.5 28.15-1.25L28.15-1.25 28.15-1.2ZM20.9-12L20.9-12Q20.9-10.4 19.78-9.28 18.65-8.15 17.05-8.15L17.05-8.15Q15.45-8.15 14.35-9.28 13.25-10.4 13.25-12L13.25-12Q13.25-13.6 14.35-14.73 15.45-15.85 17.05-15.85L17.05-15.85Q18.65-15.85 19.78-14.73 20.9-13.6 20.9-12ZM62.45-1.2L51.45-34.8 40.5-1.2 40.5-1.25Q40.2-0.5 39.67-0.03 39.15 0.45 38.4 0.45L38.4 0.45Q38 0.45 37.62 0.38 37.25 0.3 36.85 0.2L36.85 0.2 36.9 0.2Q34.05-0.7 34.8-3L34.8-3 46.2-37.65Q46.45-38.45 47.07-39 47.7-39.55 48.55-39.65L48.55-39.65Q49.4-39.8 50.2-39.88 51-39.95 51.45-39.95L51.45-39.95Q51.9-39.95 52.7-39.88 53.5-39.8 54.35-39.7L54.35-39.7Q55.05-39.6 55.72-38.95 56.4-38.3 56.75-37.65L56.75-37.65Q59.55-29.05 62.42-20.33 65.3-11.6 68.1-3L68.1-3Q68.8-0.7 66 0.2L66 0.2Q65.6 0.3 65.27 0.38 64.95 0.45 64.55 0.45L64.55 0.45Q63.85 0.45 63.27-0.03 62.7-0.5 62.45-1.25L62.45-1.25 62.45-1.2ZM55.2-12L55.2-12Q55.2-10.4 54.07-9.28 52.95-8.15 51.35-8.15L51.35-8.15Q49.75-8.15 48.65-9.28 47.55-10.4 47.55-12L47.55-12Q47.55-13.6 48.65-14.73 49.75-15.85 51.35-15.85L51.35-15.85Q52.95-15.85 54.07-14.73 55.2-13.6 55.2-12Z" opacity="1" transform="matrix(1,0,0,1,0,0)" fill="#23283e" class="wordmark-text-0" data-fill-palette-color="quaternary" id="text-0"></path></svg></g></svg></g></svg></g></svg></g><g></g></svg></g></svg></g></svg></g></svg></g><defs></defs></svg><rect width="320" height="360" fill="none" stroke="none" visibility="hidden"></rect></g></svg></g></svg>